<?xml version="1.0" standalone="no"?>
<!DOCTYPE svg PUBLIC "-//W3C//DTD SVG 20010904//EN"
 "http://www.w3.org/TR/2001/REC-SVG-20010904/DTD/svg10.dtd">
<svg version="1.0" xmlns="http://www.w3.org/2000/svg"
 width="480.000000pt" height="480.000000pt" viewBox="0 0 480.000000 480.000000"
 preserveAspectRatio="xMidYMid meet">
<metadata>
Created by potrace 1.11, written by Peter Selinger 2001-2013
</metadata>
<g transform="translate(0.000000,480.000000) scale(0.100000,-0.100000)"
fill="#000000" stroke="none">
<path d="M1283 2676 c-1 -875 -4 -1603 -6 -1617 -3 -14 -12 -40 -21 -56 -8
-17 -12 -34 -8 -38 4 -5 1 -5 -5 -1 -7 4 -13 3 -13 -3 0 -6 -10 -20 -22 -32
-13 -12 -17 -18 -9 -14 9 5 12 4 7 -3 -4 -7 -13 -12 -21 -12 -7 0 -16 -7 -19
-16 -3 -8 -10 -12 -16 -9 -5 3 -10 1 -10 -4 0 -6 -7 -11 -15 -11 -8 0 -15 -4
-15 -8 0 -5 -7 -9 -15 -10 -8 -1 -22 -3 -30 -4 -8 -1 -15 -4 -15 -7 0 -11
-144 -5 -166 7 -12 6 -24 8 -28 5 -3 -3 -6 -1 -6 6 0 7 -4 10 -9 7 -5 -3 -11
1 -15 9 -3 8 -12 15 -20 15 -8 0 -27 15 -42 32 -15 18 -31 32 -36 30 -5 -1 -7
1 -4 6 3 4 -4 21 -15 38 -10 16 -19 38 -19 50 0 11 -3 24 -7 28 -5 4 -8 524
-8 1154 l0 1147 -71 1 -70 0 1 -1150 c1 -633 5 -1162 9 -1176 4 -14 8 -31 8
-37 1 -7 5 -13 10 -13 4 0 7 -3 6 -7 -3 -13 25 -83 34 -83 4 0 8 -7 8 -15 0
-8 9 -20 20 -27 11 -7 20 -16 20 -21 0 -19 118 -109 132 -101 4 3 8 0 8 -6 0
-6 4 -8 10 -5 5 3 10 1 10 -5 0 -7 7 -10 15 -6 8 3 15 1 15 -5 0 -6 4 -7 10
-4 5 3 15 3 22 -1 7 -4 26 -10 43 -13 39 -6 2930 -6 2970 1 17 2 36 8 43 12 7
4 16 5 21 1 5 -3 15 1 23 8 7 8 19 12 26 9 6 -2 12 1 12 8 0 6 5 8 10 5 6 -3
10 -1 10 4 0 6 6 11 13 11 6 0 24 10 39 23 14 12 35 28 47 36 11 8 18 18 16
22 -3 4 1 9 9 12 7 3 24 20 37 38 13 19 17 29 8 25 -7 -4 -6 -1 3 7 10 8 15
17 11 20 -3 4 -1 7 5 7 6 0 9 7 5 17 -4 11 -3 14 5 9 8 -5 12 0 13 13 2 22 5
39 9 44 10 10 12 256 14 1658 l2 1585 -1491 0 -1491 0 -1 -1590z m2841 -66 c0
-833 -4 -1531 -8 -1550 -4 -19 -8 -41 -8 -47 -1 -7 -5 -13 -10 -13 -4 0 -8 -6
-8 -14 0 -8 -17 -33 -39 -55 -21 -22 -36 -43 -32 -47 3 -4 1 -4 -5 -1 -6 3
-20 -2 -30 -11 -50 -46 -31 -46 -1396 -46 -1057 -1 -1288 1 -1288 12 0 7 4 10
10 7 19 -12 62 19 94 69 18 28 18 89 19 1615 0 872 3 1588 7 1591 5 3 613 5
1352 5 l1343 0 -1 -1515z"/>
<path d="M1733 3596 l0 -221 216 1 216 1 1 220 1 220 -217 0 -217 0 0 -221z"/>
<path d="M2335 3606 c1 -116 2 -215 3 -221 1 -7 251 -9 729 -8 401 1 733 2
739 2 8 1 11 64 11 219 l-1 219 -741 0 -741 0 1 -211z"/>
<path d="M1735 3140 c-1 -3 -2 -35 -2 -71 l-1 -66 1044 0 1043 0 -1 69 c-1 40
-6 68 -12 69 -47 4 -2069 3 -2071 -1z"/>
<path d="M1735 2456 c-2 -6 -3 -36 -2 -67 l0 -56 1041 1 1041 1 0 65 0 65
-1038 1 c-743 1 -1040 -2 -1042 -10z"/>
<path d="M1732 1955 c0 -43 3 -66 11 -67 7 -1 206 -2 443 -3 l430 -2 1 69 1
68 -443 0 -442 0 -1 -65z"/>
<path d="M2932 1953 l3 -68 441 -1 440 0 1 68 1 68 -444 0 -445 0 3 -67z"/>
<path d="M1733 1578 c-1 -57 1 -68 15 -69 21 0 855 0 863 0 4 1 6 32 6 69 l0
69 -441 0 -442 0 -1 -69z"/>
<path d="M2935 1642 c-3 -3 -5 -34 -5 -69 0 -53 3 -63 18 -64 22 -1 855 -1
863 0 3 1 6 32 6 69 l-1 69 -438 0 c-241 0 -440 -3 -443 -5z"/>
<path d="M1739 1275 c-1 0 -3 -32 -4 -71 l-2 -71 443 0 443 1 -2 68 c-1 38 -6
68 -12 69 -7 1 -721 4 -866 4z"/>
<path d="M2940 1272 c-6 -2 -10 -34 -10 -71 l0 -68 444 0 444 1 -1 68 c0 37
-4 68 -7 69 -16 3 -862 3 -870 1z"/>
<path d="M910 2474 l0 -1341 68 1 67 1 0 1340 1 1341 -68 0 -68 0 0 -1342z"/>
</g>
</svg>
